<svg width="22" height="15" viewBox="0 0 22 15" fill="none" xmlns="http://www.w3.org/2000/svg">
<path fill-rule="evenodd" clip-rule="evenodd" d="M6.32225 0.167969C8.07767 0.167969 9.54525 1.0223 11.2998 3.26264L11.5583 2.92072C11.7324 2.69522 11.9093 2.47705 12.0899 2.26989L12.3768 1.94905C13.3723 0.890302 14.476 0.167969 15.7896 0.167969C16.9565 0.167969 18.0528 0.678552 18.9897 1.55764L19.1895 1.75289C20.7753 3.3708 21.8634 6.07039 21.9881 9.11005L21.9982 9.46939L22 9.69855C22 11.0745 21.7433 12.2276 21.2502 13.0902L21.1218 13.3011L21.0228 13.4413C20.7469 13.8263 20.4142 14.1361 20.0273 14.3662L19.7844 14.4964L19.7047 14.5331C19.6141 14.5734 19.5217 14.6095 19.4278 14.6412C19.0347 14.7712 18.6228 14.8357 18.2087 14.8319C17.7283 14.8319 17.2957 14.7705 16.8905 14.6348C16.3277 14.4478 15.8244 14.1215 15.3083 13.6118L15.1003 13.3964C14.41 12.6521 13.6941 11.5851 12.815 10.1092L11.5042 7.90005L11.0055 7.07964L9.38667 9.9488L9.07225 10.4915C6.96392 14.061 5.70808 14.8346 3.993 14.8346C2.88383 14.8346 1.97175 14.4496 1.30167 13.7511L1.14767 13.5825C0.704 13.0572 0.380417 12.3807 0.191583 11.5759L0.130167 11.2826C0.0593003 10.8926 0.0176291 10.498 0.0055 10.1019L0 9.76364C0.00183333 9.08072 0.055 8.3978 0.1595 7.71947L0.251167 7.19422C0.524333 5.79172 1.01017 4.48272 1.65917 3.38364L1.85075 3.07197C2.92967 1.39447 4.40733 0.273385 6.08117 0.175302L6.32225 0.167969ZM6.292 2.56505L6.10775 2.57422C5.34692 2.6503 4.63558 3.19114 4.04342 4.0198L3.91692 4.20222L3.90775 4.21872C3.29358 5.15097 2.8215 6.39855 2.57308 7.7433L2.56942 7.76347C2.44426 8.4451 2.38076 9.13661 2.37967 9.82964L2.3815 10.002C2.38517 10.167 2.39708 10.332 2.41817 10.497L2.45758 10.7637C2.54192 11.2248 2.69317 11.5961 2.90308 11.8711L3.01033 11.9966C3.28808 12.2927 3.65017 12.4476 4.08283 12.4476C5.09117 12.4476 5.72917 11.828 7.47083 9.11005L9.46458 5.99339L9.88075 5.3508L9.75333 5.1693C8.35083 3.19297 7.41033 2.56597 6.292 2.56597V2.56505ZM15.6383 2.05905L15.477 2.06547C14.8949 2.10947 14.3559 2.39455 13.8087 2.92072L13.629 3.10222C13.2266 3.52572 12.8159 4.07755 12.3759 4.75864L12.6198 5.12347C12.7848 5.37464 12.9516 5.6368 13.1239 5.90997L13.3925 6.34539L14.6722 8.4858L15.3093 9.50697C15.8437 10.3558 16.2534 10.9736 16.5999 11.4155L16.7952 11.6556C17.0537 11.9545 17.2801 12.1506 17.5074 12.2726L17.6009 12.3184C17.809 12.4101 18.0198 12.4449 18.2591 12.4449C18.4204 12.4467 18.5799 12.4238 18.7339 12.378C19.0438 12.2826 19.2931 12.0846 19.4792 11.7941L19.5662 11.6446L19.6368 11.4961C19.8147 11.0754 19.9027 10.5245 19.9027 9.85989L19.8972 9.4483C19.8238 6.81655 19.0373 4.52397 17.8805 3.2168L17.7192 3.04355C17.105 2.41747 16.3955 2.05905 15.6383 2.05905Z" fill="#637381"/>
</svg>
