<?xml version="1.0" encoding="utf-8"?>
<!DOCTYPE svg PUBLIC "-//W3C//DTD SVG 1.0//EN" "http://www.w3.org/TR/2001/REC-SVG-20010904/DTD/svg10.dtd">
<svg version="1.0" xmlns="http://www.w3.org/2000/svg" width="10835px" height="1325px" viewBox="0 0 10835 1325" preserveAspectRatio="xMidYMid meet">
 <g fill="#2b292d">
  <path d="M7537.30 1065.70 c-60.59 -5.60 -112.39 -29.80 -154.19 -71.59 -34.80 -35.20 -52.40 -69.59 -66.19 -129.39 -4.40 -19.80 -4.40 -19.80 -5 -243.18 l-0.80 -223.58 40.20 0 40 0 0 191.58 c0 190.98 1 221.78 7.20 253.38 19.80 98.39 87.99 152.99 191.78 152.99 55.79 0 99.39 -15.60 133.39 -47.60 31.60 -29.80 49 -64.59 57.59 -115.59 3.80 -22.20 4 -32.60 4 -228.98 l0 -205.78 42 0 42 0 0 328.97 0 328.97 -42 0 -42.20 0 0.60 -54 c0.40 -29.80 0.20 -54 -0.40 -54 -0.60 0 -3.60 4.60 -6.60 10 -24.40 43.40 -71.99 80.99 -122.39 96.59 -32.60 10.20 -81.59 14.80 -118.99 11.20z"/>
  <path d="M8291.23 1065.70 c-72.79 -6.60 -131.99 -33 -181.58 -80.79 -53.20 -51 -83.39 -111.99 -95.79 -192.98 -4.80 -31.80 -4.80 -100.19 0 -131.59 12.20 -78.19 41 -136.99 92.19 -187.38 58.39 -57.59 134.19 -86.99 224.98 -86.99 40.80 0 82.39 6.20 115.99 17.40 62.19 20.80 118.39 66.79 153.39 125.79 32.40 54.59 46.40 120.79 40.80 193.18 -1.20 16.80 -2.60 31 -3.20 32 -0.60 0.80 -122.99 1.60 -272.17 1.60 l-271.17 0 1.40 18.60 c6.80 91.59 53 167.18 124.19 202.78 50.20 25.20 113.79 31 173.78 15.60 58.19 -14.60 108.19 -54.99 131.19 -105.79 l6 -13.20 44 0 c24.20 0 44 0.80 44 1.60 0 1 -5.40 12.40 -12 25.60 -35.80 70.99 -96.79 125.79 -165.58 148.79 -44 14.60 -99.79 20.60 -150.39 15.80z m265.98 -385.96 c0 -6.80 -1.40 -21.60 -3.20 -33.20 -7.60 -52 -25.20 -89.99 -57.19 -123.79 -47.40 -50.20 -108.39 -73.59 -182.38 -70.19 -30.80 1.60 -54.19 6.40 -77.99 16.20 -81.39 33.80 -132.19 108.79 -140.39 207.18 l-1.40 16 231.38 0 231.18 0 0 -12.20z"/>
  <path d="M9758.10 1065.90 c-124.39 -10.40 -223.38 -88.59 -262.98 -207.78 -15.40 -45.80 -21.20 -91.39 -19.40 -148.19 3.40 -100.19 33.60 -175.98 94.39 -236.98 61.79 -61.99 137.79 -89.59 236.98 -86.39 69.59 2.20 124.59 18.20 171.18 49.40 31.80 21.60 64.99 60.59 84.79 99.79 6.40 13 22 51.80 22 55.19 0 0.60 -20.20 1 -44.60 1 l-44.80 0 -2.60 -8.40 c-1.40 -4.80 -6 -15.80 -10.40 -24.60 -34.80 -69.39 -101.99 -107.19 -190.78 -106.99 -64.59 0.20 -116.39 20.20 -158.39 61.59 -34.60 34 -56.39 79.19 -67.59 139.39 -3.20 16.40 -3.80 29.60 -3.80 74.99 0.20 51.80 0.40 56.39 5.60 80.19 2.80 13.80 8.20 33.20 11.60 43 39.60 113.19 144.59 169.58 268.78 144.59 66.59 -13.40 118.19 -56.19 141.39 -117.19 l6.20 -16.60 44.80 0 44.60 0 -3.20 8.60 c-28.20 73.59 -80.99 135.19 -141.79 165.18 -36.40 18 -69.79 26.40 -119.59 30.20 -28.80 2.20 -35.40 2.20 -62.39 0z"/>
  <path d="M10485.03 1065.90 c-74.19 -6 -135.39 -32.60 -185.58 -80.79 -53.20 -51.20 -83.79 -112.99 -95.79 -192.78 -4.80 -32.40 -4.80 -100.79 0 -131.99 12.20 -78.39 41 -136.99 92.19 -187.38 62.59 -61.39 141.79 -89.99 240.18 -86.39 69.19 2.60 118.79 17.40 167.18 49.60 66.19 44.40 111.19 116.79 124.99 200.78 3.80 23.20 4.60 84.59 1.40 106.99 l-1.60 11 -271.77 0.60 -271.77 0.40 1.20 18.20 c1.60 22.20 7.60 52 14.60 72.99 26.20 78.79 88.99 134.99 167.38 149.79 37.40 7 78.39 5.60 116.39 -4 57.99 -14.60 107.99 -55.19 130.99 -105.79 l6 -13.20 44 0 c24.20 0 44 0.80 44 1.60 0 1 -5.40 12.40 -12 25.60 -36.40 72.19 -97.59 126.39 -168.78 149.79 -39.20 12.80 -95.99 18.80 -143.19 15z m261.98 -384.36 c0 -29 -9 -72.39 -20 -97.79 -19.60 -44.40 -54.79 -82.39 -97.99 -105.59 -59.39 -31.80 -144.79 -35 -206.38 -8 -58.59 25.60 -102.59 74.39 -123.19 136.79 -6.40 19.20 -14.40 61.59 -14.40 76.19 l0 8.80 230.98 0 230.98 0 0 -10.40z"/>
  <path d="M2243.79 1062.50 c-50.60 -3.80 -96.59 -15.80 -135.99 -35.60 -58.19 -29.40 -93.39 -68.59 -110.79 -123.59 -4.80 -15.20 -11.20 -47.20 -11.20 -55.59 0 -3.60 3.80 -3.80 104.59 -3.80 l104.59 0 3.40 11.20 c6.60 21.40 19.20 34.40 41.60 43.20 15.20 6 55.39 7.40 73.79 2.80 25.80 -6.60 45.60 -23 51.20 -42.80 7 -24.20 -3.80 -42.40 -32.80 -55.59 -18.60 -8.20 -52.40 -18.20 -87.39 -25.80 -47.80 -10.20 -110.99 -26 -129.99 -32.20 -55.19 -18 -98.99 -54.59 -116.39 -97.39 -14.80 -36.60 -14.20 -88.39 1.60 -129.79 12 -30.80 40.60 -65.79 72.19 -88.39 52.40 -37.20 126.79 -55.59 211.58 -52.60 94.59 3.60 163.58 28.40 214.58 77.19 37.80 36.20 54.79 73.19 62.39 135.79 l0.80 6.40 -104.79 0 -104.59 0 -2.20 -10 c-3 -14.20 -11 -28.80 -19 -35 -15 -11.40 -26.80 -14 -65.19 -14 -28.60 0 -37 0.60 -45.80 3.60 -26 8.80 -37.20 23.40 -35.80 46.40 0.60 10.60 1.80 14.20 6.80 20.40 16.60 20.60 37.20 29.20 100.19 41.60 49.20 9.80 78.99 17.20 113.59 28.40 29.40 9.40 68.79 25.40 83.79 34.20 15.80 9 44 37.80 53.80 54.39 25.80 44.40 28 111.39 5.40 161.19 -27.80 61.39 -100.19 111.59 -184.98 128.59 -35.60 7 -81.19 9.60 -118.99 6.80z"/>
  <path d="M3422.88 1061.70 c-98.59 -11.40 -184.98 -75.79 -232.38 -172.78 -32.60 -66.99 -43.40 -147.19 -31.60 -232.98 11 -78.79 43.80 -143.59 100.19 -198.18 54.19 -52.20 114.19 -77.99 189.58 -81.19 48.60 -2 87.99 5.60 125.99 24.40 31.60 15.60 54.79 34.40 78.39 63.99 l6.40 8 0.20 -44.40 0 -44.60 101.99 0 101.99 0 0 335.97 0 335.97 -101.99 0 -101.99 0 0 -49 c0 -27 -0.60 -49 -1.40 -49 -1 0.20 -5.60 5.60 -10.60 12.20 -11.80 15.80 -39.80 42.80 -55.59 53.60 -47 31.80 -106.79 45.40 -169.18 38z m115.19 -177.98 c29.20 -6 54 -19.80 76.59 -42.80 18.60 -18.80 28.20 -35.60 35.80 -61.79 9.80 -33.60 10.20 -80.59 1.20 -115.59 -13.20 -51 -54.99 -92.79 -105.59 -105.79 -18.40 -4.60 -49.80 -5 -67.79 -0.80 -45.60 10.80 -85.59 45.60 -102.39 88.99 -12.80 33 -16.20 83.59 -8.20 121.99 11.60 56.19 54 100.59 108.99 114.19 16.20 4 46 4.80 61.39 1.60z"/>
  <path d="M4290 1061.70 c-130.19 -12.60 -233.18 -92.59 -273.17 -211.78 -13.60 -40.80 -19.20 -77.59 -19.20 -129.39 0 -106.59 29.20 -186.38 91.39 -249.38 59.79 -60.19 133.39 -90.79 227.58 -94.59 128.59 -5 236.58 45 295.97 136.99 13 20.20 24.40 45 33.20 72.39 l7.40 23 -109.39 0.60 c-59.99 0.20 -110.19 0 -111.59 -0.40 -1.40 -0.60 -4.20 -4.60 -6.40 -9 -7.40 -14.40 -25.40 -31.60 -41 -39.20 -16.60 -8.20 -29.80 -11 -51 -11 -80.79 0.20 -128.39 62.79 -128.19 168.98 0.20 58.39 14.40 104.99 41 134.39 22.20 24.60 47 34.80 84.99 35.20 45.80 0.40 69.59 -11.60 91.39 -45.80 l9.20 -14.80 110.59 0 c87.59 0 110.59 0.60 109.79 2.60 -13.40 42.80 -23.40 65.19 -41.60 92.99 -65.99 100.19 -184.78 151.39 -320.97 138.19z"/>
  <path d="M2921.93 1053.70 c-43.20 -3.40 -80.59 -13.20 -109.59 -28.80 -41 -21.80 -63.79 -48.60 -78.39 -91.99 -12.80 -38.40 -12.80 -39.60 -13.60 -217.38 l-0.80 -161.59 -31 0 -30.80 0 0 -84.99 0 -84.99 31 0 31 0 0 -81.99 0 -81.99 101.99 0 101.99 0 0 81.99 0 81.99 67.99 0 67.99 0 0 84.99 0 84.99 -67.99 0 -67.99 0 0 140.99 c0 95.39 0.80 144.19 2.20 151.19 2.80 13 12.20 23.60 26.40 30 9.80 4.40 13.20 4.80 59.99 5.40 l49.40 0.80 0 86.79 0 86.79 -60.39 -0.20 c-33.40 -0.20 -68.99 -1 -79.39 -2z"/>
  <path d="M4771.16 609.94 l0.40 -445.96 101.99 0 101.99 0 0.40 250.38 0.60 250.38 103.99 -140.19 103.99 -140.39 137.79 -0.20 c130.99 0 137.59 0.20 134.79 3.60 -1.60 1.80 -47.40 56.59 -101.79 121.39 -54.19 64.99 -117.39 140.39 -140.39 167.58 -37.20 44.40 -41.40 50.20 -38.80 53 1.40 2 66.39 75.99 143.99 164.98 l141.39 161.39 -136.39 -0.40 -136.19 -0.60 -106.19 -134.39 -106.19 -134.59 -0.60 134.99 -0.40 134.99 -102.59 0 -102.39 0 0.60 -445.96z"/>
  <path d="M5653.48 726.93 l0 -328.97 42 0 42 0 0 328.97 0 328.97 -42 0 -42 0 0 -328.97z"/>
  <path d="M5919.45 726.93 l0 -328.97 42 0 42 0 0.40 53.60 0.60 53.40 5.80 -10 c32 -54.79 85.19 -90.79 154.19 -104.39 25.20 -4.80 86.99 -5 111.39 0 51.60 10.40 92.39 31.80 129.19 67.99 34.40 34 53.80 71.39 66.59 128.39 4.60 20 4.60 20.60 5.60 244.58 l1.20 224.38 -40.40 0 -40.40 0 -0.80 -206.38 c-0.60 -152.39 -1.40 -210.38 -3.20 -221.38 -12.60 -75.39 -44.40 -123.79 -99.19 -151.19 -51.20 -25.60 -124.79 -27.40 -180.38 -4.60 -48.40 20 -85.19 63.79 -100.59 119.79 -9.80 36 -10 41 -10 259.38 l0 204.38 -42 0 -42 0 0 -328.97z"/>
  <path d="M6683.38 758.93 l0 -296.97 -46 0 -46 0 0 -32 0 -32 45.80 0 45.60 0 1.20 -49.40 c1.40 -66.19 6.40 -93.39 22.60 -124.59 28.60 -55.19 84.99 -82.79 178.38 -87.39 l26.40 -1.20 0 33.20 0 33.40 -13.40 0 c-57.59 0.20 -99.99 20.40 -116.99 55.59 -10.60 22.20 -13.60 43.20 -13.60 94.99 l0 45.40 75.99 0 75.99 0 0 32 0 32 -75.99 0 -75.99 0 0 296.97 0 296.97 -42 0 -42 0 0 -296.97z"/>
  <path d="M7051.35 609.94 l0 -445.96 41 0 41 0 0 445.96 0 445.96 -41 0 -41 0 0 -445.96z"/>
  <path d="M8781.19 726.93 l0 -328.97 42 0 42 0 0.40 53 0.60 53 11 -16.40 c34.40 -52.20 82.79 -83.59 149.19 -96.99 27.40 -5.40 88.59 -4.80 116.79 1.20 53.80 11.60 103.59 40.80 136.99 80.39 29.80 35.20 46.60 73.99 56.19 129.79 3 16.60 3.40 45.80 4.20 236.58 l0.80 217.38 -41 0 -41 0 -0.80 -209.38 c-0.80 -228.58 -0.40 -220.58 -12.60 -260.58 -20 -65.59 -67.39 -109.99 -132.39 -123.99 -74.99 -16.20 -152.19 3.80 -194.98 50.80 -23.80 26 -37.80 54.99 -48 99.59 -4.20 18.20 -4.20 22.80 -4.80 231.18 l-0.80 212.38 -41.80 0 -42 0 0 -328.97z"/>
  <path d="M5682.48 270.18 c-17.60 -4.60 -34 -18.80 -41.60 -36 -6 -13.60 -5.60 -34 1 -48.40 10.60 -23.20 30.20 -35.80 55.59 -35.80 19.40 0 31.60 5.40 44.60 20 26.40 29.40 17.80 77.59 -17.20 95.19 -10.60 5.40 -31.60 8 -42.40 5z"/>
 </g>
 <g fill="#f36b71">
  <path d="M173.18 1012.91 c0.80 -2 -5 -9.60 -16.20 -21.40 -62.99 -66.79 -113.19 -159.59 -136.99 -253.18 -18.80 -74.39 -23 -156.99 -11.80 -231.38 24.40 -161.39 110.79 -302.57 242.38 -395.96 100.99 -71.79 217.78 -108.99 342.17 -108.99 98.59 0 185.18 21 272.17 65.79 47.80 24.60 92.39 55.79 129.99 90.99 l16 15 -92.79 92.99 c-82.39 82.39 -92.59 93.39 -90.19 96.19 2.40 2.80 -3.80 9.80 -54.19 60.19 -39.40 39.40 -57.99 56.79 -60.99 56.79 -3.20 0 -4.20 -1 -3.60 -3.40 1.80 -8.80 -39.80 -34.60 -70.19 -43.80 -15.60 -4.60 -21.60 -5.40 -45 -5.40 -29 -0.20 -45 2.80 -68.79 13.40 -33.40 14.80 -63.59 44 -80.79 78.19 -29.20 58.19 -21.40 126.39 20 178.58 l10.20 12.80 -80.39 80.39 c-71.59 71.59 -80.19 80.79 -77.19 83.19 3 2.40 -4.40 10.40 -66.39 72.39 -49.80 49.80 -70.79 69.59 -73.99 69.59 -3.20 0 -4.20 -0.80 -3.40 -3z"/>
 </g>
 <g fill="#f7ce61">
  <path d="M386.96 1321.68 c-130.79 -9.60 -251.98 -62.39 -345.37 -150.19 l-13.60 -12.60 142.79 -143.99 142.59 -143.99 8 7.20 c43.60 39.40 108.59 50.60 163.98 28.40 42 -16.80 77.19 -54.39 91.59 -97.39 17.40 -52.40 4.40 -116.39 -31.60 -154.59 l-6 -6.40 142.79 -144.19 142.79 -144.39 13.60 14.80 c71.99 77.79 119.19 169.18 139.99 271.57 9 44.20 10.40 58.59 10.40 112.99 0 64.39 -3.80 93.79 -19.40 150.79 -41 150.19 -144.59 277.97 -283.77 349.97 -71.39 37 -140.39 55.99 -224.78 62.19 -31 2.20 -41.80 2.20 -73.99 -0.20z"/>
 </g>
 <g fill="#9fbfff">
  <path d="M1184.89 1320.88 c-50.60 -7 -91.19 -27 -127.19 -62.79 -29.40 -29.20 -48.40 -62.79 -59.59 -105.19 l-5.20 -20 0 -209.98 c0 -225.98 -0.20 -220.58 10.60 -252.98 23.80 -72.19 82.59 -126.59 157.39 -146.19 15.60 -4 22.80 -4.60 53 -4.60 30.20 0 37.40 0.60 53 4.60 87.99 23 151.59 92.39 165.98 180.98 4.40 27.40 4.40 403.36 0 431.16 -8 49.20 -30.80 92.59 -67.19 126.79 -35.80 33.80 -77.59 53 -128.79 58.99 -21.60 2.60 -28.60 2.60 -52 -0.80z"/>
 </g>
 <g fill="#82b5a5">
  <path d="M1172.89 513.95 c-52.40 -6.80 -97.59 -29.80 -133.99 -68.19 -79.99 -84.19 -80.59 -217.78 -1.40 -301.97 20 -21.20 37.60 -34.80 60.39 -46.60 63.59 -32.80 138.39 -33.40 201.98 -1.20 109.19 55.19 153.19 188.78 98.19 297.57 -30.20 59.59 -87.59 103.99 -151.99 117.39 -16.80 3.40 -57.59 5.20 -73.19 3z"/>
 </g>
</svg>